<svg xmlns="http://www.w3.org/2000/svg" width="137" height="126" viewBox="0 0 137 126">
  <g id="school" transform="translate(-679 -2501)">
    <g id="Group_43" transform="translate(583 2069)">
      <text id="SCHOOL-2" transform="translate(164 532)" font-size="34" font-family="MetalMania-Regular, Metal Mania"><tspan x="-63.125" y="0">SZKOŁA</tspan></text>
      <text id="GATHER_TO_LEARN" transform="translate(96 555)" font-size="15" font-family="Roboto-Regular, Roboto" letter-spacing="0.3em"><tspan x="5" y="0">Nauka Online</tspan></text>
    </g>
    <g id="Group_530" transform="translate(713 2501)">
      <g id="Group_529">
        <path id="Path_764" d="M36.29,32.72,16.74,25.87,14.85,44.78a2.525,2.525,0,0,1,3.03-.46c1.48.63,2.47,1.85,4.89,2.59,3.95,1.21,7.03-2.78,13.45-.3,12.8,4.95,17.58-4.16,17.58-4.16L50.46,25.34Z" fill="#404041"/>
        <path id="Path_765" d="M18.48,37.55c1.57-2.39,3.96-2.7,6.58-2.04,2.68.68,5.39,1.25,8.11,1.78,5.95-3.02,11.92-6.01,17.84-9.11l-.55-2.83L36.3,32.72,16.75,25.87,14.86,44.78a2.345,2.345,0,0,1,1.76-.74A14.169,14.169,0,0,1,18.48,37.55Z" fill="#231f20"/>
        <path id="Path_766" d="M.43,17.15,35.88,29.57a.608.608,0,0,0,.51-.04L69.12,12.5a.641.641,0,0,0-.1-1.18L33.38.03a.59.59,0,0,0-.47.04L.36,15.97A.64.64,0,0,0,.43,17.15Z" fill="#404041"/>
      </g>
      <path id="Path_767" d="M6.12,18.26l.08-.8c.64-1.05,28.61-5.21,28.61-5.21S5.76,13.46,4.59,17.17c-.61.3-2.29,23.94-2.29,23.94a25.833,25.833,0,0,0,.65-3.12c.26-1.94.65-2.37.65-1.13s.14,5.57.14,5.57a29.048,29.048,0,0,0,.93-5.18c0-1.7,1.13,4.23,1.13,4.23s.31-3.82.43-4.5S7.77,39.9,7.77,39.9,5.99,22.52,6.12,18.26Z" fill="#231f20"/>
    </g>
  </g>
</svg>
